<svg version="1.1" viewBox="0.0 0.0 614.9422572178478 648.2755905511812" fill="none" stroke="none" stroke-linecap="square" stroke-miterlimit="10" xmlns:xlink="http://www.w3.org/1999/xlink" xmlns="http://www.w3.org/2000/svg"><clipPath id="p.0"><path d="m0 0l614.94226 0l0 648.2756l-614.94226 0l0 -648.2756z" clip-rule="nonzero"/></clipPath><g clip-path="url(#p.0)"><path fill="#000000" fill-opacity="0.0" d="m0 0l614.94226 0l0 648.2756l-614.94226 0z" fill-rule="evenodd"/><path fill="#000000" fill-opacity="0.0" d="m8.0 8.0l549.19684 0l0 577.10236l-549.19684 0z" fill-rule="evenodd"/><path stroke="#000000" stroke-width="3.0" stroke-linejoin="round" stroke-linecap="butt" d="m8.0 8.0l549.19684 0l0 577.10236l-549.19684 0z" fill-rule="evenodd"/><path fill="#000000" fill-opacity="0.0" d="m44.148495 51.213875l549.19684 0l0 577.10236l-549.19684 0z" fill-rule="evenodd"/><path stroke="#000000" stroke-width="3.0" stroke-linejoin="round" stroke-linecap="butt" d="m44.148495 51.213875l549.19684 0l0 577.10236l-549.19684 0z" fill-rule="evenodd"/><path fill="#000000" fill-opacity="0.0" d="m8.0 8.0l36.34646 42.771652" fill-rule="evenodd"/><path stroke="#000000" stroke-width="3.0" stroke-linejoin="round" stroke-linecap="butt" d="m8.0 8.0l36.34646 42.771652" fill-rule="evenodd"/><path fill="#000000" fill-opacity="0.0" d="m557.1869 8.0l36.346436 42.771652" fill-rule="evenodd"/><path stroke="#000000" stroke-width="3.0" stroke-linejoin="round" stroke-linecap="butt" d="m557.1869 8.0l36.346436 42.771652" fill-rule="evenodd"/><path fill="#000000" fill-opacity="0.0" d="m8.0 585.1212l36.34646 42.771606" fill-rule="evenodd"/><path stroke="#000000" stroke-width="3.0" stroke-linejoin="round" stroke-linecap="butt" d="m8.0 585.1212l36.34646 42.771606" fill-rule="evenodd"/><path fill="#000000" fill-opacity="0.0" d="m557.1869 585.1212l36.346436 42.771606" fill-rule="evenodd"/><path stroke="#000000" stroke-width="3.0" stroke-linejoin="round" stroke-linecap="butt" d="m557.1869 585.1212l36.346436 42.771606" fill-rule="evenodd"/></g></svg>